# xmcd
#
# Track frame offsets: 
#        150
#        16021
#        32139
#        45429
#        63425
#        81930
#        104937
#        130940
#
# Disc length: 3912 seconds
#
# Revision: 0
# Processed by: cddbd v1.5.2PL0 Copyright (c) Steve Scherf et al.
# Submitted via: ExactAudioCopyFreeDBPlugin 1.0
#
DISCID=650f4608
DTITLE=Lisa Matassa - Somebody's Baby
DYEAR=2012
DGENRE=Country
TTITLE0=Somebody's Baby
TTITLE1=Wouldn't You Like To Know - NY Remix
TTITLE2=Girl With A Rock 'N Roll Heart - NY Remix
TTITLE3=Learning As You Grow
TTITLE4=Heaven
TTITLE5=I Will Always Love You - Live
TTITLE6=The Christmas Song
TTITLE7=Somebody's Baby - Official Video
EXTD=
EXTT0=
EXTT1=
EXTT2=
EXTT3=
EXTT4=
EXTT5=
EXTT6=
EXTT7=
PLAYORDER=
